<svg xmlns="http://www.w3.org/2000/svg" viewBox="0 0 91.43 117.87"><path d="M91.14,19.89c-.38-.51-1.09-.75-1.62-1.15-2.93-2.23,1.65-7.26-1.18-9.59A6.37,6.37,0,0,1,87,8.08c-.52-.76-.06-1.73,0-2.61.24-2.25-1.94-4-3.93-5.47a6.52,6.52,0,0,0-2.43,4.85c0,1.23.37,2.48,0,3.67s-2.09,2.22-3.27,1.54l2,8.87a3.5,3.5,0,0,1,0,2.55,1.85,1.85,0,0,1-2.5.69l2.72,9.18a3.51,3.51,0,0,1,0,2.75c-.47.85-2,1.28-2.67.52a37,37,0,0,1,2.46,13l-1.4-2c-2.83.43-5.85-1-6.82-3.31,0,1.28-2.22,1.63-3.61,1.14s-2.77-1.38-4.23-1c-.72.17-1.31.62-2,.8-1.76.42-3.73-.94-5.32-.17s-1.55,2.81-3.16,3.23c-1.28.34-2.42-.68-3.2-1.6a8.41,8.41,0,0,1-2.09,4c-1.18,1.08-3.31,1.57-4.62.66a9.27,9.27,0,0,1-.82,4.55,4.46,4.46,0,0,1-4.32,2.29,9.92,9.92,0,0,1-3.56,6.78,2.11,2.11,0,0,1-1.54.66c-.94-.09-1.23-1.13-1.18-1.94A10.06,10.06,0,0,1,37,53.79c-2.73-1.27-6,.6-8.84,1.71a18.44,18.44,0,0,1-7.59,1.17,5,5,0,0,1-2.12-.5c-1.81-1-1.24-3.41-.47-5.19-3.85,1-5.44,4.79-7.31,7.84a26.36,26.36,0,0,1-7.12,7.45C2.5,67,1,67.71,1.39,69c.52,1.84,3.17.24,4.8.09,1.46-.13,3.13.27,3.76,1.38S9.1,71.92,7.64,72c-.27,0-.67,0-.84-.17a1.33,1.33,0,0,1-.11-.79,1.47,1.47,0,0,0-.37-1.18.22.22,0,0,0-.09-.07.24.24,0,0,0-.12,0,.64.64,0,0,0-.53.34.92.92,0,0,0-.08.59,4.34,4.34,0,0,0,.14.7.88.88,0,0,1,0,.6c-.22.64-.81.88-1.52,1.15A6.62,6.62,0,0,0,2.6,74a4.71,4.71,0,0,1-.7-.61A2.26,2.26,0,0,1,1.44,71c0-.1.23-.67.24-.76.13-.73-.52-.14-.84.36A4.74,4.74,0,0,0,.23,72a2.07,2.07,0,0,0,.54,2c.11.13.46.52.85.93a6.19,6.19,0,0,0-1.33,6c.9,2.69,3.55,4.73,6.6,5.78l.73.23a27.56,27.56,0,0,0,10.57.49,59.83,59.83,0,0,0,17-4.45l1,24.22a17,17,0,0,1-.41,5.59,6.19,6.19,0,0,0-.48,2.21c.15,1.79,2.65,2.9,4.69,2.42a5.86,5.86,0,0,0,4-3.88,13.91,13.91,0,0,0,.33-5.34,179.66,179.66,0,0,1,.06-23c.09-1.26.42-2.79,1.81-3.22a106.52,106.52,0,0,1,.52,31.54,4.32,4.32,0,0,0,.32,3,3.19,3.19,0,0,0,1.83,1.22,5.62,5.62,0,0,0,5.89-2.62,8.17,8.17,0,0,0,1.1-5l0-22.5c0-3.14,0-6.36,1.29-9.34a10.54,10.54,0,0,1,7.7-6.32,1.78,1.78,0,0,1,.92,0,1.32,1.32,0,0,1,.65,1,69.52,69.52,0,0,1,.81,14.13L67.12,98.4c0,1.83.4,13.12-.65,14.74a4.86,4.86,0,0,0-.85,1.49c-.29,1.28,1.18,2.41,2.69,2.55a6.1,6.1,0,0,0,5.33-2.64C76,111.19,75,97.83,75.37,94.2c.47-4.22.47-10.2,1.52-11.7,1.71,2.34.82,6.08.93,8.75a102.69,102.69,0,0,1-.08,10.38c-.07,1.21.3,10.88-.55,11.87a7,7,0,0,0-1,1.22c-.74,1.45,1.33,2.91,3.17,2.81a6.61,6.61,0,0,0,5.17-3.38c1-1.75.74-12.1,1-14q.84-7.35,1.69-14.69c.79-6.91,1.58-13.85,1.14-20.75-.49-7.66-2.28-16,2.78-22.49a2,2,0,0,1-2.78-1,4.17,4.17,0,0,1,.39-3q1-2.55,2-5.12a3.13,3.13,0,0,0,.23-2.64c-.3-.53-.89-.89-1.27-1.38-1.79-2.26,1.43-5.09,1.79-7.83A1.9,1.9,0,0,0,91.14,19.89Zm-83,56.3c-3-.7-2.41-2.42.59-2.37A3.1,3.1,0,0,1,10.8,74C9.35,75.33,8.28,73.54,8.1,76.19Zm7.76-3.89c-1-.42-2.06-1.17-1.68-2.22A4.65,4.65,0,0,1,16.56,68a12,12,0,0,1,3.56-1.17c.26,0,.58-.12.78.08a.63.63,0,0,1,.17.38A10.65,10.65,0,0,1,21,69a1,1,0,0,0,.11.52.57.57,0,0,0,.5.27.61.61,0,0,0,.49-.31,1.09,1.09,0,0,0,.1-.53A6.25,6.25,0,0,0,22,67.51a1.71,1.71,0,0,1,0-.78c.15-.56.85-.53,1.37-.44l.26,0C31.82,68.3,20.07,74.38,15.86,72.3Z"/></svg>