<svg xmlns="http://www.w3.org/2000/svg" viewBox="0 0 427.36 138.38"><path d="M153.28,138.38a48.65,48.65,0,0,1-12.48-1.44,18.27,18.27,0,0,1-8.4-4.44,10.55,10.55,0,0,1-3-7.8,12.14,12.14,0,0,1,1.38-5.82,14.47,14.47,0,0,1,3.78-4.5,26.62,26.62,0,0,1,5.16-3.24,12,12,0,0,1-6.06-3.48,8.45,8.45,0,0,1-2.1-5.76,11.73,11.73,0,0,1,2-7,38.22,38.22,0,0,1,5.64-6.12,18.6,18.6,0,0,1-5.58-7.5A31.4,31.4,0,0,1,131.8,69.5a31.18,31.18,0,0,1,2.58-13.38,17.8,17.8,0,0,1,7.56-8.22,24.81,24.81,0,0,1,12.18-2.76,23.17,23.17,0,0,1,9.24,1.62,14.88,14.88,0,0,1,6.12,4.86,21.16,21.16,0,0,1,3.36-3.6,21.91,21.91,0,0,1,5.52-3.6l2.16-1,4,8.76q-1.32.36-3.54,1.2t-4.38,1.8a32.35,32.35,0,0,0-3.36,1.68,28.34,28.34,0,0,1,1.8,6,34.92,34.92,0,0,1,.72,6.84,32.54,32.54,0,0,1-2.28,12.72,17.57,17.57,0,0,1-7,8.34q-4.74,2.94-12.3,2.94a28.49,28.49,0,0,1-4.92-.42,40.51,40.51,0,0,1-4.44-1q-.72,1.08-1.38,2.28a5.16,5.16,0,0,0-.66,2.52,2.47,2.47,0,0,0,1.44,2.16,12.86,12.86,0,0,0,4.8,1.2l14.64,1.44q8.52.84,12.6,5.34t4.08,12.18a18.32,18.32,0,0,1-2.82,10.44,17.19,17.19,0,0,1-8.76,6.36Q162.76,138.38,153.28,138.38Zm1.8-12.24q6.72,0,10.08-1.32a4.8,4.8,0,0,0,3.36-4.8,5.33,5.33,0,0,0-.84-3.12,6,6,0,0,0-3-2,25.71,25.71,0,0,0-6.12-1.14l-11.88-1.08a20.82,20.82,0,0,0-2.34,2.22,9.7,9.7,0,0,0-1.62,2.46,6.6,6.6,0,0,0-.6,2.76,4.81,4.81,0,0,0,2.88,4.5Q147.88,126.14,155.08,126.14Zm-1-42.84a6.8,6.8,0,0,0,3.48-.78,5,5,0,0,0,2-2.52,15.17,15.17,0,0,0,1-4.38q.24-2.64.24-6.12t-.24-6.12a17.69,17.69,0,0,0-.9-4.44,5.06,5.06,0,0,0-2-2.64,8,8,0,0,0-7.14,0,5,5,0,0,0-2,2.58,18.39,18.39,0,0,0-1,4.38,56.16,56.16,0,0,0-.3,6.24q0,3.36.24,5.94a15,15,0,0,0,1,4.32,5.6,5.6,0,0,0,2.1,2.64A6.37,6.37,0,0,0,154.12,83.3Z"/><path d="M189.52,115.58V46.22h16.32V56.9q3.6-6.12,7.2-8.82a12.9,12.9,0,0,1,7.92-2.7,11.57,11.57,0,0,1,1.26.06q.54.06,1.26.18V62.54a21.21,21.21,0,0,0-3.18-1,15,15,0,0,0-3.54-.42,11.34,11.34,0,0,0-5.88,1.56,16.36,16.36,0,0,0-5,5.16v47.76Z"/><path d="M232,134.42V122.66a39.56,39.56,0,0,0,6.84-.48,7.15,7.15,0,0,0,3.84-1.68,4.54,4.54,0,0,0,1.2-3.36,24.54,24.54,0,0,0-.78-4.92q-.78-3.36-1.74-7.32L226.12,46.22H242l9,45.72,7.8-45.72h15.72l-16.2,72.12a20.62,20.62,0,0,1-4.44,9.6,17.38,17.38,0,0,1-7.8,5,35.85,35.85,0,0,1-10.92,1.5Z"/><path d="M309.28,116.9q-10.69,0-16.74-4.2a21.85,21.85,0,0,1-8.46-11.46,53,53,0,0,1-2.4-16.74V49.82a55.34,55.34,0,0,1,2.4-17.28,20.67,20.67,0,0,1,8.46-11.28q6-4,16.74-4,10.08,0,15.78,3.42a18.9,18.9,0,0,1,8.1,9.78,41.91,41.91,0,0,1,2.4,14.76v8.16h-17V45a60.3,60.3,0,0,0-.42-7.44,9.3,9.3,0,0,0-2.28-5.34c-1.25-1.32-3.38-2-6.42-2s-5.27.7-6.66,2.1A10.06,10.06,0,0,0,300,38a47,47,0,0,0-.6,8V88.22a36.84,36.84,0,0,0,.84,8.7,8.92,8.92,0,0,0,3.06,5.16,9.56,9.56,0,0,0,6.06,1.74c3,0,5.06-.7,6.3-2.1A10.4,10.4,0,0,0,318,96.14a59.12,59.12,0,0,0,.48-7.8V79.58h17v7.8a47.44,47.44,0,0,1-2.28,15.3,20,20,0,0,1-8,10.44Q319.6,116.9,309.28,116.9Z"/><path d="M358.47,116.66a13.24,13.24,0,0,1-8-2.46,16.18,16.18,0,0,1-5.15-6.24,18.09,18.09,0,0,1-1.81-7.86,21.61,21.61,0,0,1,8.77-18.36,44.61,44.61,0,0,1,9-5.22q5-2.22,10.19-4v-6a25.52,25.52,0,0,0-.42-5,5.83,5.83,0,0,0-1.55-3.12,5,5,0,0,0-3.54-1.08,4.9,4.9,0,0,0-5.11,3.66,16.56,16.56,0,0,0-.65,4l-.24,4.2-15.49-.6q.36-12,5.95-17.7t17-5.7q10.44,0,15.19,5.76t4.74,15.6v32c0,2.56.05,4.88.18,7s.27,4,.47,5.64.38,3.16.54,4.44H373.83q-.36-2.4-.9-5.46c-.35-2-.62-3.54-.77-4.5a17.89,17.89,0,0,1-4.57,7.62Q364.23,116.66,358.47,116.66Zm6-12.12a6,6,0,0,0,2.95-.78,11.62,11.62,0,0,0,2.46-1.86,9.91,9.91,0,0,0,1.55-1.92V80.66q-2.64,1.56-5,3.12a22.39,22.39,0,0,0-4.08,3.42,13.07,13.07,0,0,0-2.64,4,12.85,12.85,0,0,0-.91,5,10.7,10.7,0,0,0,1.5,6.06A4.73,4.73,0,0,0,364.47,104.54Z"/><path d="M416.92,116.42c-4.41,0-7.86-.72-10.38-2.16A11.81,11.81,0,0,1,401.2,108a27.22,27.22,0,0,1-1.56-9.72V57h-7V46.22h7V25.46h16.44V46.22h10.56V57H416.08V96.86c0,2.4.51,4.1,1.56,5.1a6.48,6.48,0,0,0,4.68,1.5q1.32,0,2.58-.12l2.46-.24v12.48l-4.74.54A51.8,51.8,0,0,1,416.92,116.42Z"/><path d="M46.83,89.81,46,89.53c-4-1.49-6.91-4.3-8-7.72a9.49,9.49,0,0,1,.46-6.69,5.2,5.2,0,0,1-.58-3.8A8.2,8.2,0,0,1,38.84,69l0,0c-.2-2.59,1.94-4.14,2.79-4.76.13-.09.26-.18.38-.28a24.6,24.6,0,0,0,4.55-4.58L38.4,18.38h-19L0,115.58H16.68l4-22.44H37.56l3.84,22.44H57.84l-5-24.88A21.64,21.64,0,0,1,46.83,89.81Zm-24.39-8L29,41.06l6.6,40.8Z"/><path d="M125.35,19.89c-.35-.51-1-.75-1.5-1.15-2.72-2.23,1.53-7.26-1.1-9.59-.42-.36-1-.61-1.27-1.07-.49-.76-.06-1.73,0-2.61.22-2.25-1.81-4-3.66-5.47a6.73,6.73,0,0,0-2.26,4.85c0,1.23.34,2.48,0,3.67s-1.94,2.22-3,1.54c.64,3,1.27,5.91,1.91,8.87a3.84,3.84,0,0,1-.05,2.55,1.67,1.67,0,0,1-2.33.69l2.53,9.18a3.79,3.79,0,0,1,0,2.75c-.44.85-1.9,1.28-2.48.52a39.42,39.42,0,0,1,2.28,13l-1.3-2a5.92,5.92,0,0,1-6.34-3.31c0,1.28-2.07,1.63-3.35,1.14s-2.58-1.38-3.94-1c-.66.17-1.22.62-1.88.8-1.63.42-3.47-.94-4.94-.17s-1.45,2.81-2.94,3.23c-1.19.34-2.26-.68-3-1.6a8.61,8.61,0,0,1-1.94,4c-1.1,1.08-3.07,1.57-4.3.66a10,10,0,0,1-.75,4.55,4.1,4.1,0,0,1-4,2.29,10.2,10.2,0,0,1-3.31,6.78A1.91,1.91,0,0,1,71,63.6c-.88-.09-1.15-1.13-1.1-1.94A10.11,10.11,0,0,1,75,53.79c-2.53-1.27-5.53.6-8.21,1.71a16.06,16.06,0,0,1-7.06,1.17,4.36,4.36,0,0,1-2-.5c-1.68-1-1.15-3.41-.43-5.19-3.58,1-5.06,4.79-6.8,7.84a25.62,25.62,0,0,1-6.61,7.45c-.94.74-2.31,1.44-2,2.75.48,1.84,3,.24,4.46.09,1.35-.13,2.9.27,3.49,1.38S49.1,71.92,47.75,72c-.25,0-.63,0-.79-.17a1.41,1.41,0,0,1-.1-.79,1.56,1.56,0,0,0-.34-1.18.27.27,0,0,0-.08-.07.25.25,0,0,0-.12,0,.61.61,0,0,0-.49.34,1.08,1.08,0,0,0-.08.59,4.34,4.34,0,0,0,.14.7,1,1,0,0,1,0,.6c-.21.64-.75.88-1.42,1.15a6.08,6.08,0,0,0-1.42.83,4.25,4.25,0,0,1-.65-.61A2.37,2.37,0,0,1,42,71c0-.1.2-.67.22-.76.12-.73-.48-.14-.79.36A5,5,0,0,0,40.86,72a2.16,2.16,0,0,0,.5,2c.1.13.43.52.79.93a6.59,6.59,0,0,0-1.24,6c.84,2.69,3.3,4.73,6.14,5.78l.68.23a23.83,23.83,0,0,0,9.82.49A52.43,52.43,0,0,0,73.33,83q.45,12.11.89,24.22a18.08,18.08,0,0,1-.37,5.59A6.36,6.36,0,0,0,73.4,115c.14,1.79,2.46,2.9,4.35,2.42a5.61,5.61,0,0,0,3.77-3.88,15,15,0,0,0,.31-5.34,191.35,191.35,0,0,1,.06-23C82,84,82.27,82.42,83.57,82a114.48,114.48,0,0,1,.48,31.54,4.56,4.56,0,0,0,.3,3A3,3,0,0,0,86,117.72c2.11.62,4.46-.79,5.48-2.62a8.63,8.63,0,0,0,1-5q0-11.25,0-22.5c0-3.14,0-6.36,1.2-9.34a10,10,0,0,1,7.16-6.32,1.53,1.53,0,0,1,.85,0,1.29,1.29,0,0,1,.6,1,74.08,74.08,0,0,1,.76,14.13L103,98.4c0,1.83.38,13.12-.6,14.74a5.35,5.35,0,0,0-.79,1.49c-.27,1.28,1.1,2.41,2.5,2.55a5.51,5.51,0,0,0,5-2.64c2.15-3.35,1.23-16.71,1.61-20.34.45-4.22.44-10.2,1.41-11.7,1.6,2.34.77,6.08.88,8.75.13,3.46.11,6.92-.08,10.38-.07,1.21.27,10.88-.51,11.87a7,7,0,0,0-1,1.22c-.69,1.45,1.23,2.91,3,2.81a6.13,6.13,0,0,0,4.8-3.38c.93-1.75.69-12.1.9-14l1.56-14.69c.74-6.91,1.48-13.85,1.07-20.75-.46-7.66-2.12-16,2.57-22.49a1.84,1.84,0,0,1-2.58-1,4.49,4.49,0,0,1,.37-3l1.86-5.12a3.32,3.32,0,0,0,.21-2.64,12.68,12.68,0,0,0-1.18-1.38c-1.67-2.26,1.33-5.09,1.66-7.83A1.94,1.94,0,0,0,125.35,19.89ZM48.18,76.19c-2.78-.7-2.24-2.42.54-2.37a2.7,2.7,0,0,1,2,.22C49.33,75.33,48.34,73.54,48.18,76.19Zm7.21-3.89c-.9-.42-1.92-1.17-1.56-2.22A4.39,4.39,0,0,1,56,68a10.66,10.66,0,0,1,3.3-1.17c.25,0,.55-.12.73.08a.68.68,0,0,1,.16.38,10.65,10.65,0,0,1-.1,1.69,1,1,0,0,0,.11.52.52.52,0,0,0,.46.27.59.59,0,0,0,.46-.31,1.21,1.21,0,0,0,.09-.53,7.57,7.57,0,0,0-.19-1.43,1.59,1.59,0,0,1,0-.78c.14-.56.79-.53,1.27-.44l.24,0C70.22,68.3,59.3,74.38,55.39,72.3Z"/></svg>