<svg xmlns="http://www.w3.org/2000/svg" viewBox="0 0 515.74 144.32"><path d="M98.38,121.52l19.44-97.2h19l19.44,97.2H139.78l-3.84-22.44H119l-4,22.44ZM120.82,87.8H134L127.42,47Z"/><path d="M164.38,121.52V52.16H180.7v7a35.34,35.34,0,0,1,7.86-5.82,18.63,18.63,0,0,1,8.94-2.22,10.36,10.36,0,0,1,6.84,2.1,12.29,12.29,0,0,1,3.72,5.58,23,23,0,0,1,1.2,7.56v55.2H192.94v-52a9.79,9.79,0,0,0-1-4.8q-1-1.68-3.72-1.68a8.46,8.46,0,0,0-3.66,1,23.86,23.86,0,0,0-3.9,2.4v55.08Z"/><path d="M241.66,144.32a48.65,48.65,0,0,1-12.48-1.44,18.27,18.27,0,0,1-8.4-4.44,10.55,10.55,0,0,1-3-7.8,12.14,12.14,0,0,1,1.38-5.82,14.47,14.47,0,0,1,3.78-4.5,26.62,26.62,0,0,1,5.16-3.24A12,12,0,0,1,222,113.6a8.45,8.45,0,0,1-2.1-5.76,11.73,11.73,0,0,1,2-7,38.22,38.22,0,0,1,5.64-6.12,18.6,18.6,0,0,1-5.58-7.5,31.4,31.4,0,0,1-1.86-11.82,31.18,31.18,0,0,1,2.58-13.38,17.8,17.8,0,0,1,7.56-8.22,24.81,24.81,0,0,1,12.18-2.76,23.17,23.17,0,0,1,9.24,1.62,14.88,14.88,0,0,1,6.12,4.86,21.16,21.16,0,0,1,3.36-3.6,21.91,21.91,0,0,1,5.52-3.6l2.16-1,4,8.76q-1.32.36-3.54,1.2t-4.38,1.8a32.35,32.35,0,0,0-3.36,1.68,28.34,28.34,0,0,1,1.8,6,34.92,34.92,0,0,1,.72,6.84,32.54,32.54,0,0,1-2.28,12.72,17.57,17.57,0,0,1-7,8.34q-4.74,2.94-12.3,2.94a28.49,28.49,0,0,1-4.92-.42,40.51,40.51,0,0,1-4.44-1q-.72,1.08-1.38,2.28a5.16,5.16,0,0,0-.66,2.52,2.47,2.47,0,0,0,1.44,2.16,12.86,12.86,0,0,0,4.8,1.2L252,107.84q8.52.84,12.6,5.34t4.08,12.18a18.32,18.32,0,0,1-2.82,10.44,17.19,17.19,0,0,1-8.76,6.36Q251.14,144.32,241.66,144.32Zm1.8-12.24q6.72,0,10.08-1.32a4.8,4.8,0,0,0,3.36-4.8,5.33,5.33,0,0,0-.84-3.12,6,6,0,0,0-3-2,25.71,25.71,0,0,0-6.12-1.14l-11.88-1.08a20.82,20.82,0,0,0-2.34,2.22,9.7,9.7,0,0,0-1.62,2.46,6.6,6.6,0,0,0-.6,2.76,4.81,4.81,0,0,0,2.88,4.5Q236.26,132.08,243.46,132.08Zm-1-42.84a6.8,6.8,0,0,0,3.48-.78,5,5,0,0,0,2-2.52,15.17,15.17,0,0,0,1-4.38q.24-2.64.24-6.12T249,69.32a17.69,17.69,0,0,0-.9-4.44,5.06,5.06,0,0,0-2-2.64,8,8,0,0,0-7.14,0,5,5,0,0,0-2,2.58,18.39,18.39,0,0,0-1,4.38,56.16,56.16,0,0,0-.3,6.24q0,3.36.24,5.94a15,15,0,0,0,1,4.32,5.6,5.6,0,0,0,2.1,2.64A6.37,6.37,0,0,0,242.5,89.24Z"/><path d="M277.9,121.52V52.16h16.32V62.84q3.6-6.12,7.2-8.82a12.9,12.9,0,0,1,7.92-2.7,11.57,11.57,0,0,1,1.26.06q.54.06,1.26.18V68.48a21.21,21.21,0,0,0-3.18-1,15,15,0,0,0-3.54-.42,11.34,11.34,0,0,0-5.88,1.56,16.36,16.36,0,0,0-5,5.16v47.76Z"/><path d="M320.38,140.36V128.6a39.56,39.56,0,0,0,6.84-.48,7.15,7.15,0,0,0,3.84-1.68,4.54,4.54,0,0,0,1.2-3.36,24.54,24.54,0,0,0-.78-4.92q-.78-3.36-1.74-7.32L314.5,52.16h15.84l9,45.72,7.8-45.72h15.72l-16.2,72.12a20.62,20.62,0,0,1-4.44,9.6,17.38,17.38,0,0,1-7.8,5,35.85,35.85,0,0,1-10.92,1.5Z"/><path d="M397.66,122.84q-10.68,0-16.74-4.2a21.9,21.9,0,0,1-8.46-11.46,53.32,53.32,0,0,1-2.4-16.74V55.76a55.64,55.64,0,0,1,2.4-17.28,20.72,20.72,0,0,1,8.46-11.28q6.06-4,16.74-4,10.08,0,15.78,3.42a18.81,18.81,0,0,1,8.1,9.78,41.68,41.68,0,0,1,2.4,14.76v8.16h-17V51a60.3,60.3,0,0,0-.42-7.44,9.23,9.23,0,0,0-2.28-5.34q-1.86-2-6.42-2t-6.66,2.1a10.12,10.12,0,0,0-2.7,5.64,48,48,0,0,0-.6,8V94.16a37.38,37.38,0,0,0,.84,8.7,9,9,0,0,0,3.06,5.16,9.58,9.58,0,0,0,6.06,1.74q4.44,0,6.3-2.1a10.32,10.32,0,0,0,2.34-5.58,57.45,57.45,0,0,0,.48-7.8V85.52h17v7.8a47.17,47.17,0,0,1-2.28,15.3,19.89,19.89,0,0,1-8,10.44Q408,122.84,397.66,122.84Z"/><path d="M446.86,122.6a13.24,13.24,0,0,1-8-2.46,16.3,16.3,0,0,1-5.16-6.24,18.07,18.07,0,0,1-1.8-7.86,21.57,21.57,0,0,1,8.76-18.36,44.61,44.61,0,0,1,9-5.22q5-2.22,10.2-4v-6a25.52,25.52,0,0,0-.42-5,5.77,5.77,0,0,0-1.56-3.12,5,5,0,0,0-3.54-1.08,5.3,5.3,0,0,0-3.3,1,5.22,5.22,0,0,0-1.8,2.7,16.54,16.54,0,0,0-.66,4l-.24,4.2-15.48-.6q.36-12,5.94-17.7t17-5.7q10.44,0,15.18,5.76t4.74,15.6v32q0,3.84.18,7t.48,5.64q.3,2.52.54,4.44H462.22q-.36-2.4-.9-5.46t-.78-4.5a17.76,17.76,0,0,1-4.56,7.62Q452.62,122.6,446.86,122.6Zm6-12.12a5.88,5.88,0,0,0,2.94-.78,11.37,11.37,0,0,0,2.46-1.86,9.65,9.65,0,0,0,1.56-1.92V86.6q-2.64,1.56-5,3.12a22.74,22.74,0,0,0-4.08,3.42,13.44,13.44,0,0,0-2.64,4,13,13,0,0,0-.9,5,10.7,10.7,0,0,0,1.5,6.06A4.73,4.73,0,0,0,452.86,110.48Z"/><path d="M505.3,122.36q-6.6,0-10.38-2.16a11.86,11.86,0,0,1-5.34-6.24,27.22,27.22,0,0,1-1.56-9.72V63h-7V52.16h7V31.4h16.44V52.16H515V63H504.46V102.8q0,3.6,1.56,5.1a6.51,6.51,0,0,0,4.68,1.5q1.32,0,2.58-.12l2.46-.24v12.48l-4.74.54A51.66,51.66,0,0,1,505.3,122.36Z"/><path d="M87.73,23.83c-.35-.51-1-.75-1.5-1.15-2.72-2.24,1.53-7.26-1.1-9.59-.42-.37-1-.61-1.27-1.07-.49-.76-.06-1.73,0-2.61.22-2.25-1.8-4-3.66-5.47A6.67,6.67,0,0,0,78,8.78c0,1.24.34,2.49,0,3.68S76,14.68,74.91,14q.95,4.44,1.9,8.86a3.87,3.87,0,0,1,0,2.56,1.66,1.66,0,0,1-2.33.68L77,35.29A3.74,3.74,0,0,1,77,38c-.44.85-1.9,1.28-2.48.52a39.42,39.42,0,0,1,2.28,13l-1.3-2a5.93,5.93,0,0,1-6.34-3.31c0,1.28-2.06,1.63-3.35,1.14s-2.57-1.39-3.93-1c-.67.18-1.23.63-1.89.81-1.63.42-3.46-.94-4.94-.17s-1.45,2.81-2.94,3.23c-1.19.34-2.25-.68-3-1.6a8.53,8.53,0,0,1-1.94,4c-1.1,1.09-3.07,1.58-4.3.67a9.83,9.83,0,0,1-.75,4.55,4.09,4.09,0,0,1-4,2.29,10.18,10.18,0,0,1-3.3,6.78,2,2,0,0,1-1.44.66c-.88-.09-1.14-1.13-1.09-1.94a10,10,0,0,1,5.08-7.87c-2.54-1.27-5.54.6-8.22,1.71a15.89,15.89,0,0,1-7,1.16,4.2,4.2,0,0,1-2-.49c-1.69-1-1.16-3.41-.44-5.19-3.58,1-5.06,4.79-6.8,7.84a25.62,25.62,0,0,1-6.61,7.45C5.35,71,4,71.65,4.32,73c.48,1.84-.21,1-.52,1.53a5,5,0,0,0-.56,1.43,2.18,2.18,0,0,0,.5,2c.11.13.43.52.8.93a6.57,6.57,0,0,0-1.25,6c.84,2.69,3.3,4.73,6.14,5.78l.68.23a23.83,23.83,0,0,0,9.82.49A52.72,52.72,0,0,0,35.71,86.9l.9,24.22a18.31,18.31,0,0,1-.38,5.58,6.46,6.46,0,0,0-.45,2.22c.14,1.79,2.46,2.9,4.36,2.42a5.63,5.63,0,0,0,3.76-3.88,14.75,14.75,0,0,0,.31-5.34,193.45,193.45,0,0,1,.06-23c.08-1.26.38-2.79,1.68-3.22a114.47,114.47,0,0,1,.48,31.54,4.62,4.62,0,0,0,.3,3,3,3,0,0,0,1.69,1.22c2.11.62,4.46-.79,5.48-2.63a8.6,8.6,0,0,0,1-5q0-11.24,0-22.49c0-3.14,0-6.36,1.2-9.34a10,10,0,0,1,7.16-6.32,1.53,1.53,0,0,1,.85,0,1.29,1.29,0,0,1,.6,1,73.28,73.28,0,0,1,.76,14.13q-.06,5.64-.11,11.26c0,1.84.37,13.13-.61,14.74a5.55,5.55,0,0,0-.79,1.5c-.27,1.28,1.1,2.41,2.5,2.55a5.54,5.54,0,0,0,5-2.64c2.14-3.35,1.22-16.71,1.6-20.34.45-4.22.44-10.2,1.42-11.7,1.59,2.34.76,6.08.87,8.75.13,3.46.11,6.92-.08,10.38-.06,1.21.27,10.88-.51,11.87a6.64,6.64,0,0,0-1,1.22c-.69,1.45,1.24,2.91,2.95,2.81a6.16,6.16,0,0,0,4.81-3.38c.92-1.75.68-12.1.89-14L84,89.38c.74-6.9,1.48-13.84,1.07-20.75C84.61,61,83,52.6,87.65,46.15a1.85,1.85,0,0,1-2.59-1,4.56,4.56,0,0,1,.37-3l1.86-5.12a3.32,3.32,0,0,0,.21-2.64A12.68,12.68,0,0,0,86.32,33C84.65,30.78,87.65,28,88,25.2A1.92,1.92,0,0,0,87.73,23.83Z" style="fill:#fff;stroke:#fff;stroke-miterlimit:10;stroke-width:6.051050350200285px"/><path d="M87.73,23.83c-.35-.51-1-.75-1.5-1.15-2.72-2.24,1.53-7.26-1.1-9.59-.42-.37-1-.61-1.27-1.07-.49-.76-.06-1.73,0-2.61.22-2.25-1.8-4-3.66-5.47A6.67,6.67,0,0,0,78,8.78c0,1.24.34,2.49,0,3.68S76,14.68,74.91,14q.95,4.44,1.9,8.86a3.87,3.87,0,0,1,0,2.56,1.66,1.66,0,0,1-2.33.68L77,35.29A3.74,3.74,0,0,1,77,38c-.44.85-1.9,1.28-2.48.52a39.42,39.42,0,0,1,2.28,13l-1.3-2a5.93,5.93,0,0,1-6.34-3.31c0,1.28-2.06,1.63-3.35,1.14s-2.57-1.39-3.93-1c-.67.18-1.23.63-1.89.81-1.63.42-3.46-.94-4.94-.17s-1.45,2.81-2.94,3.23c-1.19.34-2.25-.68-3-1.6a8.53,8.53,0,0,1-1.94,4c-1.1,1.09-3.07,1.58-4.3.67a9.83,9.83,0,0,1-.75,4.55,4.09,4.09,0,0,1-4,2.29,10.18,10.18,0,0,1-3.3,6.78,2,2,0,0,1-1.44.66c-.88-.09-1.14-1.13-1.09-1.94a10,10,0,0,1,5.08-7.87c-2.54-1.27-5.54.6-8.22,1.71a15.89,15.89,0,0,1-7,1.16,4.2,4.2,0,0,1-2-.49c-1.69-1-1.16-3.41-.44-5.19-3.58,1-5.06,4.79-6.8,7.84a25.62,25.62,0,0,1-6.61,7.45C5.35,71,4,71.65,4.32,73c.48,1.84,2.95.24,4.46.09s2.9.26,3.49,1.38-.79,1.43-2.14,1.53c-.25,0-.63.05-.78-.17A1.33,1.33,0,0,1,9.24,75a1.6,1.6,0,0,0-.34-1.19l-.08-.06a.2.2,0,0,0-.11,0,.61.61,0,0,0-.5.34,1,1,0,0,0-.07.59,3.45,3.45,0,0,0,.13.7,1,1,0,0,1,0,.6c-.21.64-.75.88-1.42,1.15A5.75,5.75,0,0,0,5.44,78a4.25,4.25,0,0,1-.65-.61,2.37,2.37,0,0,1-.42-2.45c0-.1.21-.67.22-.76.12-.74-.48-.14-.79.36a5,5,0,0,0-.56,1.43,2.18,2.18,0,0,0,.5,2c.11.13.43.52.8.93a6.57,6.57,0,0,0-1.25,6c.84,2.69,3.3,4.73,6.14,5.78l.68.23a23.83,23.83,0,0,0,9.82.49A52.72,52.72,0,0,0,35.71,86.9l.9,24.22a18.31,18.31,0,0,1-.38,5.58,6.46,6.46,0,0,0-.45,2.22c.14,1.79,2.46,2.9,4.36,2.42a5.63,5.63,0,0,0,3.76-3.88,14.75,14.75,0,0,0,.31-5.34,193.45,193.45,0,0,1,.06-23c.08-1.26.38-2.79,1.68-3.22a114.47,114.47,0,0,1,.48,31.54,4.62,4.62,0,0,0,.3,3,3,3,0,0,0,1.69,1.22c2.11.62,4.46-.79,5.48-2.63a8.6,8.6,0,0,0,1-5q0-11.24,0-22.49c0-3.14,0-6.36,1.2-9.34a10,10,0,0,1,7.16-6.32,1.53,1.53,0,0,1,.85,0,1.29,1.29,0,0,1,.6,1,73.28,73.28,0,0,1,.76,14.13q-.06,5.64-.11,11.26c0,1.84.37,13.13-.61,14.74a5.55,5.55,0,0,0-.79,1.5c-.27,1.28,1.1,2.41,2.5,2.55a5.54,5.54,0,0,0,5-2.64c2.14-3.35,1.22-16.71,1.6-20.34.45-4.22.44-10.2,1.42-11.7,1.59,2.34.76,6.08.87,8.75.13,3.46.11,6.92-.08,10.38-.06,1.21.27,10.88-.51,11.87a6.64,6.64,0,0,0-1,1.22c-.69,1.45,1.24,2.91,2.95,2.81a6.16,6.16,0,0,0,4.81-3.38c.92-1.75.68-12.1.89-14L84,89.38c.74-6.9,1.48-13.84,1.07-20.75C84.61,61,83,52.6,87.65,46.15a1.85,1.85,0,0,1-2.59-1,4.56,4.56,0,0,1,.37-3l1.86-5.12a3.32,3.32,0,0,0,.21-2.64A12.68,12.68,0,0,0,86.32,33C84.65,30.78,87.65,28,88,25.2A1.92,1.92,0,0,0,87.73,23.83ZM10.56,80.13c-2.78-.7-2.24-2.43.54-2.37a2.7,2.7,0,0,1,2,.22C11.71,79.26,10.73,77.48,10.56,80.13Zm7.21-3.89c-.9-.43-1.92-1.17-1.56-2.23A4.41,4.41,0,0,1,18.42,72a10.41,10.41,0,0,1,3.3-1.17c.25,0,.55-.12.73.08a.68.68,0,0,1,.16.38,9.59,9.59,0,0,1-.1,1.69,1,1,0,0,0,.11.52.52.52,0,0,0,.47.27.59.59,0,0,0,.45-.31,1.26,1.26,0,0,0,.09-.54,6.83,6.83,0,0,0-.19-1.42,1.75,1.75,0,0,1,0-.79c.14-.55.79-.52,1.27-.43l.25,0C32.6,72.23,21.68,78.32,17.77,76.24Z"/></svg>